<svg xmlns="http://www.w3.org/2000/svg" xmlns:xlink="http://www.w3.org/1999/xlink" viewBox="0 0 48.1 33"><defs><path id="a" d="M0 0h48.1v33H0z"/></defs><clipPath id="b"><use xlink:href="#a" overflow="visible"/></clipPath><path d="M42.7 25c1.5-.6 2.6-2 3.9-4.4-3.6-2.1-7.5-.9-10.1 3.6m-5.1 5.5c2.5 2.4 6.3 4.1 11-.9-3.1-3-7.4-2.8-11 .9zm12.7-12.6c1.6-1.1 2.7-3.1 3-6.7-4.3-.3-7.5 2.6-7.9 7.8m3.9-9.6c1.1-1.6 1.4-3.9.3-7.3-4.1 1.3-6 5.2-4.5 10.1M5.5 25c-1.5-.6-2.6-2-3.9-4.4 3.6-2.1 7.5-.9 10.1 3.6m5 5.5c-2.5 2.4-6.3 4.1-11-.9 3.1-3 7.5-2.8 11 .9zM4 17.1C2.4 16 1.3 14 1 10.4c4.4-.3 7.6 2.6 8 7.8M5 8.6C4 7 3.6 4.7 4.7 1.3c4.1 1.3 6 5.2 4.5 10.1" clip-path="url(#b)" fill="none" stroke="#505050" stroke-width="2" stroke-miterlimit="10"/><path clip-path="url(#b)" fill="none" stroke="#505050" stroke-width="2" stroke-linejoin="round" stroke-miterlimit="10" d="M24.1 6.5l2.7 6.2 6.5.5-4.8 4.6 1.2 6.1-5.6-3-5.7 2.9 1.2-6-4.7-4.6 6.4-.5z"/></svg>