<svg xmlns="http://www.w3.org/2000/svg" xmlns:xlink="http://www.w3.org/1999/xlink" viewBox="0 0 48 45.5"><defs><path id="a" d="M4 0h40v45.5H4z"/></defs><clipPath id="b"><use xlink:href="#a" overflow="visible"/></clipPath><path clip-path="url(#b)" fill="none" stroke="#505050" stroke-width="2" stroke-linejoin="round" stroke-miterlimit="10" d="M13 33L7 45"/><defs><path id="c" d="M4 0h40v45.5H4z"/></defs><clipPath id="d"><use xlink:href="#c" overflow="visible"/></clipPath><path clip-path="url(#d)" fill="none" stroke="#505050" stroke-width="2" stroke-linejoin="round" stroke-miterlimit="10" d="M28.1 36.7L23 45"/><defs><path id="e" d="M4 0h40v45.5H4z"/></defs><clipPath id="f"><use xlink:href="#e" overflow="visible"/></clipPath><circle cx="21" cy="33" r="8" clip-path="url(#f)" fill="none" stroke="#505050" stroke-width="2" stroke-linejoin="round" stroke-miterlimit="10"/><defs><path id="g" d="M4 0h40v45.5H4z"/></defs><clipPath id="h"><use xlink:href="#g" overflow="visible"/></clipPath><circle cx="21" cy="33" r="3" clip-path="url(#h)" fill="none" stroke="#505050" stroke-width="2" stroke-linejoin="round" stroke-miterlimit="10"/><defs><path id="i" d="M4 0h40v45.5H4z"/></defs><clipPath id="j"><use xlink:href="#i" overflow="visible"/></clipPath><circle cx="38" cy="8" r="5" clip-path="url(#j)" fill="none" stroke="#505050" stroke-width="2" stroke-miterlimit="10"/><defs><path id="k" d="M4 0h40v45.5H4z"/></defs><clipPath id="l"><use xlink:href="#k" overflow="visible"/></clipPath><circle cx="12" cy="8" r="7" clip-path="url(#l)" fill="none" stroke="#505050" stroke-width="2" stroke-linejoin="round" stroke-miterlimit="10"/><defs><path id="m" d="M4 0h40v45.5H4z"/></defs><clipPath id="n"><use xlink:href="#m" overflow="visible"/></clipPath><path clip-path="url(#n)" fill="none" stroke="#505050" stroke-width="2" stroke-miterlimit="10" d="M34 5h-5l-1-1H18"/><defs><path id="o" d="M4 0h40v45.5H4z"/></defs><clipPath id="p"><use xlink:href="#o" overflow="visible"/></clipPath><path clip-path="url(#p)" fill="none" stroke="#505050" stroke-width="2" stroke-miterlimit="10" d="M34 10h-5l-1 1h-9"/><defs><path id="q" d="M4 0h40v45.5H4z"/></defs><clipPath id="r"><use xlink:href="#q" overflow="visible"/></clipPath><path clip-path="url(#r)" fill="none" stroke="#505050" stroke-width="2" stroke-linejoin="round" stroke-miterlimit="10" d="M5.5 10.6l7.8 20.2"/><defs><path id="s" d="M4 0h40v45.5H4z"/></defs><clipPath id="t"><use xlink:href="#s" overflow="visible"/></clipPath><path clip-path="url(#t)" fill="none" stroke="#505050" stroke-width="2" stroke-linejoin="round" stroke-miterlimit="10" d="M18 12l9.6 16.5"/><defs><path id="u" d="M4 0h40v45.5H4z"/></defs><clipPath id="v"><use xlink:href="#u" overflow="visible"/></clipPath><path clip-path="url(#v)" fill="none" stroke="#505050" stroke-width="2" stroke-miterlimit="10" d="M35 12v3l-1 1v6l1 1v2l2 2h2l2-2v-2l1-1v-6l-1-1v-3"/><defs><path id="w" d="M4 0h40v45.5H4z"/></defs><clipPath id="x"><use xlink:href="#w" overflow="visible"/></clipPath><path clip-path="url(#x)" fill="none" stroke="#505050" stroke-width="2" stroke-linejoin="round" stroke-miterlimit="10" d="M38 27v7"/></svg>