<svg version="1.1" id="Слой_1" xmlns="http://www.w3.org/2000/svg" xmlns:xlink="http://www.w3.org/1999/xlink" x="0" y="0" viewBox="0 0 48 33.7" xml:space="preserve"><style>.st2{fill:none;stroke:#505050;stroke-width:2;stroke-miterlimit:10;clip-path:url(#SVGID_2_)}</style><path d="M41 12.7l-15 7m-19-7l15 7" stroke-linecap="round" fill="none" stroke="#505050" stroke-width="2" stroke-miterlimit="10"/><path fill="none" stroke="#505050" stroke-width="2" stroke-miterlimit="10" d="M24 7.7l6 3v1l-6 3-6-3v-1z"/><defs><path id="SVGID_1_" d="M0 0h48v33.7H0z"/></defs><clipPath id="SVGID_2_"><use xlink:href="#SVGID_1_" overflow="visible"/></clipPath><path class="st2" d="M15.9 23.7c.6-1.1 1.8-1.6 2.9-1 1.1.6 1.6 1.9 1.1 3l-1.9 3v2c0 1.1-.9 2-2 2s-2-.9-2-2v-2"/><path class="st2" d="M11.9 21.7c.6-1.1 1.8-1.6 2.9-1 1.1.6 1.6 1.9 1.1 3l-1.9 3v2c0 1.1-.9 2-2 2s-2-.9-2-2v-2"/><path class="st2" d="M7.9 19.7c.6-1.1 1.8-1.6 2.9-1 1.1.6 1.6 1.9 1.1 3l-1.9 3v2c0 1.1-.9 2-2 2s-2-.9-2-2v-2"/><path class="st2" d="M3.9 17.7c.6-1.1 1.8-1.6 2.9-1 1.1.6 1.6 1.9 1.1 3l-1.9 3v2c0 1.1-.9 2-2 2s-2-.9-2-2v-4l1.9-3z"/><path class="st2" d="M44.8 18.7l1-.5c.7-.3 1.2-1 1.2-1.8V13c0-.8-.4-1.5-1.1-1.8L25.3 1.3c-.8-.4-1.8-.4-2.6 0L2.1 11.1c-.7.3-1.1 1-1.1 1.8v3.5c0 .8.4 1.5 1.1 1.8l1.1.5m28.9 5c-.6-1.1-1.8-1.6-2.9-1-1.1.6-1.6 1.9-1.1 3l1.9 3v2c0 1.1.9 2 2 2s2-.9 2-2v-2"/><path class="st2" d="M36.1 21.7c-.6-1.1-1.8-1.6-2.9-1-1.1.6-1.6 1.9-1.1 3l1.9 3v2c0 1.1.9 2 2 2s2-.9 2-2v-2"/><path class="st2" d="M40.1 19.7c-.6-1.1-1.8-1.6-2.9-1-1.1.6-1.6 1.9-1.1 3l1.9 3v2c0 1.1.9 2 2 2s2-.9 2-2v-2"/><path class="st2" d="M44.1 17.7c-.6-1.1-1.8-1.6-2.9-1-1.1.6-1.6 1.9-1.1 3l1.9 3v2c0 1.1.9 2 2 2s2-.9 2-2v-4l-1.9-3zm-15.5 8.8l-3.8 1.8c-.5.3-1.2.3-1.7 0l-3.8-1.8"/></svg>