<svg version="1.1" id="Слой_1" xmlns="http://www.w3.org/2000/svg" xmlns:xlink="http://www.w3.org/1999/xlink" x="0" y="0" viewBox="0 0 48 48" xml:space="preserve"><style>.st0{clip-path:url(#SVGID_2_);fill:none;stroke:#505050;stroke-width:2;stroke-linejoin:round;stroke-miterlimit:10}</style><defs><path id="SVGID_1_" d="M3 0h42v48H3z"/></defs><clipPath id="SVGID_2_"><use xlink:href="#SVGID_1_" overflow="visible"/></clipPath><circle class="st0" cx="17" cy="29" r="3"/><path class="st0" d="M12 17h-1.3l-1.9-1.7M32 18h1.2l1.6-1H41V9"/><path class="st0" d="M43.2 26.4L40.7 29H37v-1.8L34.1 24H26v-1.5c0-1.8 2.2-3.5 4-3.5V7m-7 20v5h3.1l1.9 2.5V41h3.2l2.8-3.4v-7.8L30.7 27H26"/><path class="st0" d="M41.5 19.3c1.6 2.9 2.5 5.2 2.5 8.7 0 11-9 19-20 19S4 39 4 28c0-6.3 2.9-10.9 7.5-14.6m20.8-2.6c1.5.7 2.9 1.6 4.2 2.6M19 9.6c1.6-.4 3.3-.6 5-.6 1.1 0 2.2.1 3.3.3"/><path class="st0" d="M4.8 25.7L8.2 29H11v-3.3l3-3.7h2v-3c0-1.4-.6-2-2-2V9m9 18V17m-8.8 27.5l1.8-1.7v-1.3l1-1V32m-4 1h-1c-1.1 0-2 .9-2 2v7"/><circle class="st0" cx="23" cy="15" r="3"/><circle class="st0" cx="14" cy="6" r="3"/><circle class="st0" cx="30" cy="4" r="3"/><circle class="st0" cx="41" cy="7" r="3"/></svg>