<svg version="1.1" id="Слой_1" xmlns="http://www.w3.org/2000/svg" xmlns:xlink="http://www.w3.org/1999/xlink" x="0" y="0" viewBox="0 0 48 47" xml:space="preserve"><style>.st0{clip-path:url(#SVGID_2_);fill:none;stroke:#505050;stroke-width:2;stroke-miterlimit:10}</style><defs><path id="SVGID_1_" d="M0 0h48v47H0z"/></defs><clipPath id="SVGID_2_"><use xlink:href="#SVGID_1_" overflow="visible"/></clipPath><path class="st0" d="M41 8h6V5c0-2.2-1.8-4-4-4"/><path d="M39 5c0-2.2 1.8-4 4-4H9C6.8 1 5 2.8 5 5v37c0 2.2-1.8 4-4 4h34c2.2 0 4-1.8 4-4V5z" clip-path="url(#SVGID_2_)" fill="none" stroke="#505050" stroke-width="2" stroke-linecap="round" stroke-linejoin="round" stroke-miterlimit="10"/><path class="st0" d="M25 15h7m-7-5h7M11 23h21m-21 5h21m-21 5h14m-3-14v-2c0-1.3-2.8-3-5-3s-5 1.7-5 3v2m5-12c-1.6 0-3 1.1-3 2.5v2c0 1.4 1.4 2.5 3 2.5s3-1.1 3-2.5v-2C20 8.1 18.6 7 17 7z"/></svg>