<svg xmlns="http://www.w3.org/2000/svg" xmlns:xlink="http://www.w3.org/1999/xlink" viewBox="0 0 48 47"><defs><path id="a" d="M1 0h46v47H1z"/></defs><clipPath id="b"><use xlink:href="#a" overflow="visible"/></clipPath><path d="M30 32c2.2 0 4-2.1 4-4v-9c0-3.3-6.5-5-10-5s-10 1.7-10 5v9c0 1.9 1.8 4 4 4m24 2c1.9 0 4-1.1 4-3v-9c0-3.3-5.9-5-9-5h-1m-12-6c2.3 0 4-1.6 4-4V5c0-2.4-1.7-4-4-4s-4 1.6-4 4v2c0 2.4 1.7 4 4 4zm18 36V24M30 47V21m-12 0v26m6-16v16m13-33c2.3 0 4-1.6 4-4V8c0-2.4-1.7-4-4-4s-4 1.6-4 4v2c0 2.4 1.7 4 4 4zM6 34c-1.9 0-4-1.1-4-3v-9c0-3.3 5.9-5 9-5h1M6 47V24m5-10c-2.3 0-4-1.6-4-4V8c0-2.4 1.7-4 4-4s4 1.6 4 4v2c0 2.4-1.7 4-4 4z" clip-path="url(#b)" fill="none" stroke="#505050" stroke-width="2" stroke-linejoin="round" stroke-miterlimit="10"/></svg>