<svg  width="1920" height="980" viewBox="0 0 1920 980" fill="none" xmlns="http://www.w3.org/2000/svg">
<g clip-path="url(#clip0)">
<rect width="1920" height="980" fill="white"/>
<rect width="1920" height="980" fill="#F5F5F5"/>
<mask id="mask0" mask-type="alpha" maskUnits="userSpaceOnUse" x="0" y="0" width="1920" height="980">
<rect width="1920" height="980" fill="#F5F5F5"/>
</mask>
<g mask="url(#mask0)">
</g>
<path fill-rule="evenodd" clip-rule="evenodd" d="M1.29721 706.552C-98.7634 706.552 -179.88 786.28 -179.88 884.629C-179.88 982.977 -98.7634 1062.71 1.29721 1062.71C101.358 1062.71 182.474 982.977 182.474 884.629C182.474 786.28 101.358 706.552 1.29721 706.552ZM-247.61 884.629C-247.61 749.513 -136.171 639.981 1.29721 639.981C138.765 639.981 250.204 749.513 250.204 884.629C250.204 1019.74 138.765 1129.28 1.29721 1129.28C-136.171 1129.28 -247.61 1019.74 -247.61 884.629Z" fill="white" stroke="white" stroke-width="50"/>
<path fill-rule="evenodd" clip-rule="evenodd" d="M1694.15 -640.802C1502.12 -436.003 1101.88 -10.3622 1042.99 47.5211C1005 84.8574 959.976 92.706 921.17 87.3637C883.77 82.2144 851.416 64.9393 832.245 50.2072L831.435 49.5881L537.735 -205.715L582.606 -255.583L874.705 -1.67151C886.713 7.34552 907.797 18.3032 930.568 21.4353C952.407 24.4443 974.833 20.3635 995.094 0.44873C1052.7 -56.1698 1451.45 -480.196 1644.34 -685.917L1694.15 -640.802Z" fill="white" stroke="white" stroke-width="50"/>
<path fill-rule="evenodd" clip-rule="evenodd" d="M-316.818 -322.366L-364.439 -275.027L830.702 886.331L832.253 887.522C851.424 902.255 883.778 919.53 921.178 924.679C959.984 930.021 1005.01 922.173 1042.99 884.836C1067.44 860.809 1090.94 834.056 1121.63 797.958L1122 798.268C1210.37 698.534 1268.66 629.537 1311.75 578.527L1316.56 572.825C1360.35 520.993 1387.23 489.415 1415.03 462.095C1435.29 442.18 1457.72 438.099 1479.56 441.108C1501.79 444.167 1522.42 454.689 1534.56 463.579L2496.33 1423.87L2544.62 1377.17L1579.61 413.668L1577.88 412.336C1558.71 397.604 1526.35 380.329 1488.95 375.18C1450.15 369.837 1405.12 377.686 1367.14 415.022C1342.69 439.049 1319.19 465.802 1288.5 501.901L1288.14 501.591C1199.76 601.328 1141.47 670.325 1098.38 721.338L1093.57 727.033C1049.78 778.865 1022.9 810.443 995.102 837.764C974.841 857.679 952.416 861.756 930.576 858.75C908.235 855.675 887.52 845.074 875.403 836.156L-316.818 -322.366Z" fill="white"/>
<path d="M-364.439 -275.027L-382.064 -292.757L-400.104 -274.825L-381.861 -257.098L-364.439 -275.027ZM-316.818 -322.366L-299.396 -340.295L-317.017 -357.418L-334.443 -340.096L-316.818 -322.366ZM830.702 886.331L813.279 904.26L814.32 905.271L815.47 906.155L830.702 886.331ZM832.253 887.522L847.486 867.699L847.484 867.698L832.253 887.522ZM921.178 924.679L917.769 949.445H917.769L921.178 924.679ZM1042.99 884.836L1025.47 867.007L1025.47 867.008L1042.99 884.836ZM1121.63 797.958L1137.9 778.968L1118.84 762.651L1102.59 781.764L1121.63 797.958ZM1122 798.268L1105.74 817.257L1124.41 833.244L1140.71 814.848L1122 798.268ZM1311.75 578.527L1330.84 594.66L1330.85 594.651L1311.75 578.527ZM1316.56 572.825L1297.46 556.691L1297.45 556.701L1316.56 572.825ZM1415.03 462.095L1397.51 444.264L1397.51 444.265L1415.03 462.095ZM1479.56 441.108L1476.14 465.874L1476.15 465.875L1479.56 441.108ZM1534.56 463.579L1552.22 445.888L1550.87 444.539L1549.33 443.411L1534.56 463.579ZM2496.33 1423.87L2478.67 1441.56L2496.05 1458.92L2513.71 1441.84L2496.33 1423.87ZM2544.62 1377.17L2562 1395.14L2580.29 1377.45L2562.29 1359.48L2544.62 1377.17ZM1579.61 413.668L1597.28 395.976L1596.13 394.828L1594.84 393.839L1579.61 413.668ZM1577.88 412.336L1562.65 432.159L1562.65 432.165L1577.88 412.336ZM1488.95 375.18L1492.36 350.413L1492.36 350.413L1488.95 375.18ZM1367.14 415.022L1384.66 432.852L1384.66 432.852L1367.14 415.022ZM1288.5 501.901L1272.24 520.893L1291.3 537.205L1307.54 518.094L1288.5 501.901ZM1288.14 501.591L1304.39 482.599L1285.72 466.618L1269.42 485.011L1288.14 501.591ZM1098.38 721.338L1079.29 705.206L1079.28 705.21L1098.38 721.338ZM1093.57 727.033L1112.67 743.168L1112.68 743.162L1093.57 727.033ZM995.102 837.764L1012.63 855.594L1012.63 855.594L995.102 837.764ZM930.576 858.75L927.167 883.517L927.167 883.517L930.576 858.75ZM875.403 836.156L857.981 854.086L859.208 855.278L860.585 856.292L875.403 836.156ZM-346.814 -257.297L-299.193 -304.636L-334.443 -340.096L-382.064 -292.757L-346.814 -257.297ZM848.124 868.401L-347.017 -292.957L-381.861 -257.098L813.279 904.26L848.124 868.401ZM847.484 867.698L845.933 866.506L815.47 906.155L817.021 907.347L847.484 867.698ZM924.588 899.913C892.331 895.471 863.953 880.354 847.486 867.699L817.019 907.345C838.894 924.155 875.225 943.588 917.769 949.445L924.588 899.913ZM1025.47 867.008C994.066 897.875 957.312 904.417 924.588 899.913L917.769 949.445C962.657 955.625 1015.96 946.47 1060.52 902.665L1025.47 867.008ZM1102.59 781.764C1071.94 817.813 1049.05 843.826 1025.47 867.007L1060.52 902.666C1085.82 877.793 1109.95 850.3 1140.68 814.151L1102.59 781.764ZM1138.26 779.278L1137.9 778.968L1105.37 816.947L1105.74 817.257L1138.26 779.278ZM1292.65 562.394C1249.6 613.358 1191.46 682.177 1103.29 781.688L1140.71 814.848C1229.28 714.892 1287.71 645.717 1330.84 594.66L1292.65 562.394ZM1297.45 556.701L1292.64 562.403L1330.85 594.651L1335.66 588.949L1297.45 556.701ZM1397.51 444.265C1368.72 472.56 1341.04 505.103 1297.46 556.691L1335.65 588.959C1379.65 536.883 1405.75 506.271 1432.55 479.924L1397.51 444.265ZM1482.97 416.342C1454.95 412.482 1424.29 417.938 1397.51 444.264L1432.55 479.926C1446.29 466.422 1460.48 463.716 1476.14 465.874L1482.97 416.342ZM1549.33 443.411C1534.63 432.643 1510.18 420.085 1482.96 416.341L1476.15 465.875C1493.41 468.249 1510.21 476.734 1519.79 483.747L1549.33 443.411ZM2514 1406.18L1552.22 445.888L1516.9 481.271L2478.67 1441.56L2514 1406.18ZM2527.25 1359.2L2478.95 1405.9L2513.71 1441.84L2562 1395.14L2527.25 1359.2ZM1561.95 431.359L2526.96 1394.86L2562.29 1359.48L1597.28 395.976L1561.95 431.359ZM1562.65 432.165L1564.39 433.496L1594.84 393.839L1593.1 392.508L1562.65 432.165ZM1485.54 399.946C1517.8 404.387 1546.18 419.505 1562.65 432.159L1593.11 392.513C1571.24 375.704 1534.91 356.271 1492.36 350.413L1485.54 399.946ZM1384.66 432.852C1416.07 401.983 1452.82 395.441 1485.54 399.946L1492.36 350.413C1447.47 344.234 1394.18 353.389 1349.61 397.193L1384.66 432.852ZM1307.54 518.094C1338.19 482.046 1361.08 456.033 1384.66 432.852L1349.61 397.193C1324.31 422.066 1300.18 449.559 1269.45 485.707L1307.54 518.094ZM1271.88 520.583L1272.24 520.893L1304.75 482.909L1304.39 482.599L1271.88 520.583ZM1117.48 737.47C1160.53 686.505 1218.67 617.685 1306.85 518.171L1269.42 485.011C1180.85 584.971 1122.41 654.146 1079.29 705.206L1117.48 737.47ZM1112.68 743.162L1117.49 737.467L1079.28 705.21L1074.47 710.905L1112.68 743.162ZM1012.63 855.594C1041.41 827.299 1069.09 794.755 1112.67 743.168L1074.48 710.899C1030.48 762.975 1004.38 793.588 977.578 819.934L1012.63 855.594ZM927.167 883.517C955.177 887.372 985.839 881.923 1012.63 855.594L977.578 819.934C963.843 833.435 949.654 836.141 933.985 833.984L927.167 883.517ZM860.585 856.292C875.28 867.106 899.834 879.754 927.167 883.517L933.986 833.984C916.637 831.596 899.76 823.041 890.222 816.021L860.585 856.292ZM-334.241 -304.436L857.981 854.086L892.826 818.227L-299.396 -340.295L-334.241 -304.436Z" fill="white"/>
</g>
<defs>
<clipPath id="clip0">
<rect width="1920" height="980" fill="white"/>
</clipPath>
</defs>
</svg>
