<svg width="46" height="44" viewBox="0 0 46 44" fill="none" xmlns="http://www.w3.org/2000/svg">
<path d="M45.9999 22C45.9999 34.1503 35.915 44 23.4745 44C11.0341 44 0.949219 34.1503 0.949219 22C0.949219 9.84972 11.0341 0 23.4745 0C35.915 0 45.9999 9.84972 45.9999 22Z" fill="#FF6B32"/>
<path fill-rule="evenodd" clip-rule="evenodd" d="M23.4745 43.1571C35.4383 43.1571 45.1368 33.6847 45.1368 22C45.1368 10.3153 35.4383 0.842912 23.4745 0.842912C11.5108 0.842912 1.81226 10.3153 1.81226 22C1.81226 33.6847 11.5108 43.1571 23.4745 43.1571ZM23.4745 44C35.915 44 45.9999 34.1503 45.9999 22C45.9999 9.84972 35.915 0 23.4745 0C11.0341 0 0.949219 9.84972 0.949219 22C0.949219 34.1503 11.0341 44 23.4745 44Z" fill="#232323"/>
<path d="M20.7987 6.46946C20.7987 7.94751 19.5718 9.14571 18.0585 9.14571C16.5452 9.14571 15.3184 7.94751 15.3184 6.46946C15.3184 4.99141 16.5452 3.79321 18.0585 3.79321C19.5718 3.79321 20.7987 4.99141 20.7987 6.46946Z" fill="#FF6B32"/>
<path fill-rule="evenodd" clip-rule="evenodd" d="M18.0584 4.21449C16.7834 4.21449 15.7498 5.22401 15.7498 6.46928C15.7498 7.71456 16.7834 8.72407 18.0584 8.72407C19.3334 8.72407 20.367 7.71456 20.367 6.46928C20.367 5.22401 19.3334 4.21449 18.0584 4.21449ZM14.8867 6.46928C14.8867 4.75847 16.3067 3.37158 18.0584 3.37158C19.8101 3.37158 21.2301 4.75847 21.2301 6.46928C21.2301 8.1801 19.8101 9.56699 18.0584 9.56699C16.3067 9.56699 14.8867 8.1801 14.8867 6.46928Z" fill="#232323"/>
<path d="M22.2655 37.4463C22.2655 38.9243 21.0386 40.1225 19.5253 40.1225C18.012 40.1225 16.7852 38.9243 16.7852 37.4463C16.7852 35.9682 18.012 34.77 19.5253 34.77C21.0386 34.77 22.2655 35.9682 22.2655 37.4463Z" fill="#FF6B32"/>
<path fill-rule="evenodd" clip-rule="evenodd" d="M19.5271 35.1915C18.2521 35.1915 17.2185 36.2011 17.2185 37.4463C17.2185 38.6916 18.2521 39.7011 19.5271 39.7011C20.8021 39.7011 21.8358 38.6916 21.8358 37.4463C21.8358 36.2011 20.8021 35.1915 19.5271 35.1915ZM16.3555 37.4463C16.3555 35.7355 17.7755 34.3486 19.5271 34.3486C21.2788 34.3486 22.6988 35.7355 22.6988 37.4463C22.6988 39.1571 21.2788 40.544 19.5271 40.544C17.7755 40.544 16.3555 39.1571 16.3555 37.4463Z" fill="#232323"/>
<path d="M16.7869 20.7988C16.7869 22.2768 15.5601 23.475 14.0468 23.475C12.5335 23.475 11.3066 22.2768 11.3066 20.7988C11.3066 19.3208 12.5335 18.1226 14.0468 18.1226C15.5601 18.1226 16.7869 19.3208 16.7869 20.7988Z" fill="#FF6B32"/>
<path fill-rule="evenodd" clip-rule="evenodd" d="M14.0467 18.5441C12.7717 18.5441 11.738 19.5536 11.738 20.7989C11.738 22.0442 12.7717 23.0537 14.0467 23.0537C15.3217 23.0537 16.3553 22.0442 16.3553 20.7989C16.3553 19.5536 15.3217 18.5441 14.0467 18.5441ZM10.875 20.7989C10.875 19.0881 12.295 17.7012 14.0467 17.7012C15.7983 17.7012 17.2183 19.0881 17.2183 20.7989C17.2183 22.5097 15.7983 23.8966 14.0467 23.8966C12.295 23.8966 10.875 22.5097 10.875 20.7989Z" fill="#232323"/>
<path fill-rule="evenodd" clip-rule="evenodd" d="M34.3429 3.38326C31.8959 5.97639 26.7959 11.3658 26.0455 12.0987C25.5615 12.5715 24.9878 12.6708 24.4933 12.6032C24.0167 12.538 23.6045 12.3193 23.3602 12.1327L23.3499 12.1249L19.6074 8.89227L20.1792 8.26085L23.9012 11.4758C24.0542 11.59 24.3229 11.7288 24.6131 11.7684C24.8913 11.8065 25.1771 11.7548 25.4353 11.5027C26.1693 10.7858 31.2503 5.41682 33.7083 2.81201L34.3429 3.38326Z" fill="#232323"/>
<path fill-rule="evenodd" clip-rule="evenodd" d="M8.11133 6.49515L8.71813 5.89575L23.9099 20.5648C24.0643 20.6777 24.3282 20.812 24.6129 20.8509C24.8912 20.889 25.1769 20.8373 25.4351 20.5852C25.7893 20.2392 26.1319 19.8394 26.6899 19.1831L26.7512 19.111C27.3002 18.4651 28.0429 17.5914 29.1691 16.3286L29.8199 16.8822C28.7006 18.1374 27.9631 19.0048 27.4151 19.6495L27.3538 19.7216C26.8028 20.3697 26.4334 20.8022 26.0454 21.1812C25.5614 21.6539 24.9876 21.7533 24.4932 21.6857C24.0166 21.6205 23.6043 21.4017 23.36 21.2152L23.3403 21.2001L8.11133 6.49515Z" fill="#232323"/>
<path fill-rule="evenodd" clip-rule="evenodd" d="M15.6582 22.8429L16.2747 22.2529L24.6461 30.5973C24.8008 30.7098 25.0635 30.8428 25.3466 30.8815C25.6249 30.9196 25.9106 30.868 26.1688 30.6158C26.523 30.2699 26.8656 29.87 27.4236 29.2137C27.4437 29.19 27.4642 29.1659 27.4849 29.1415C28.034 28.4957 28.7767 27.622 29.9028 26.3592L30.5536 26.9128C29.4342 28.168 28.6968 29.0355 28.1488 29.6801C28.1281 29.7045 28.1077 29.7285 28.0875 29.7522C27.5365 30.4003 27.1671 30.8328 26.7791 31.2118C26.2951 31.6846 25.7213 31.784 25.2268 31.7163C24.7503 31.6511 24.338 31.4324 24.0937 31.2458L24.0712 31.2287L15.6582 22.8429Z" fill="#232323"/>
<path fill-rule="evenodd" clip-rule="evenodd" d="M41.5399 34.1801L40.9234 34.7701L32.552 26.4257C32.3973 26.3132 32.1346 26.1802 31.8515 26.1415C31.5732 26.1034 31.2875 26.155 31.0293 26.4072C30.6751 26.7531 30.3325 27.153 29.7745 27.8093C29.7544 27.833 29.7339 27.857 29.7132 27.8815C29.1641 28.5273 28.4214 29.401 27.2954 30.6638L26.6445 30.1102C27.7639 28.855 28.5013 27.9875 29.0493 27.3429C29.07 27.3185 29.0904 27.2945 29.1106 27.2708C29.6616 26.6227 30.031 26.1901 30.419 25.8112C30.903 25.3384 31.4768 25.239 31.9713 25.3067C32.4478 25.3719 32.8601 25.5906 33.1044 25.7772L33.1269 25.7943L41.5399 34.1801Z" fill="#232323"/>
<path fill-rule="evenodd" clip-rule="evenodd" d="M45.0773 27.4151L44.462 28.0064L32.2067 15.8474C32.052 15.7348 31.7891 15.6016 31.5058 15.5629C31.2275 15.5248 30.9418 15.5764 30.6836 15.8286C30.3294 16.1745 29.9868 16.5743 29.4288 17.2306L29.3675 17.3028C28.8184 17.9487 28.0757 18.8224 26.9496 20.0852L26.2988 19.5315C27.4182 18.2764 28.1556 17.4089 28.7036 16.7643C28.7243 16.7399 28.7447 16.7159 28.7649 16.6922C29.3159 16.0441 29.6853 15.6115 30.0733 15.2326C30.5574 14.7598 31.1311 14.6604 31.6256 14.7281C32.1021 14.7933 32.5144 15.012 32.7587 15.1985L32.7808 15.2154L45.0773 27.4151Z" fill="#232323"/>
<path fill-rule="evenodd" clip-rule="evenodd" d="M17.6384 35.5117L17.014 36.0936L9.378 28.2784C9.223 28.1662 8.96145 28.0342 8.67963 27.9957C8.40134 27.9576 8.11559 28.0093 7.85741 28.2614C7.50322 28.6074 7.16063 29.0072 6.60264 29.6635C6.58248 29.6873 6.56203 29.7113 6.54128 29.7357C5.99221 30.3816 5.24956 31.2553 4.12346 32.518L3.47266 31.9644C4.59201 30.7092 5.32944 29.8417 5.87742 29.1971L5.93866 29.1251C6.48971 28.4769 6.85913 28.0444 7.24715 27.6654C7.73115 27.1927 8.3049 27.0933 8.79933 27.1609C9.27594 27.2261 9.68822 27.4449 9.9325 27.6314L9.95723 27.6503L17.6384 35.5117Z" fill="#232323"/>
<path fill-rule="evenodd" clip-rule="evenodd" d="M23.3867 43.365C25.7074 40.7627 30.0083 35.948 30.7644 35.2096C31.2484 34.7369 31.8222 34.6375 32.3166 34.7051C32.7932 34.7703 33.2055 34.9891 33.4498 35.1756L33.4685 35.1899L37.2398 38.7887L36.6367 39.3916L32.9009 35.8267C32.7466 35.7136 32.4821 35.5789 32.1969 35.5399C31.9186 35.5018 31.6328 35.5535 31.3747 35.8056C30.6463 36.517 26.3773 41.2949 24.0375 43.9187L23.3867 43.365Z" fill="#232323"/>
<path fill-rule="evenodd" clip-rule="evenodd" d="M2.18289 25.7693C4.57999 23.2339 9.01416 18.536 9.68379 17.7217C10.1125 17.2006 10.1514 16.6327 10.0289 16.16C9.9109 15.7044 9.64357 15.3278 9.42721 15.1108L9.41094 15.0945L4.35284 11.0122L3.80308 11.662L8.82373 15.714C8.95556 15.8515 9.12156 16.0938 9.19225 16.3668C9.2612 16.6328 9.23963 16.9158 9.01096 17.1939C8.36588 17.9782 3.96564 22.6412 1.54883 25.1975L2.18289 25.7693Z" fill="#232323"/>
<path fill-rule="evenodd" clip-rule="evenodd" d="M45.2849 20.8426C42.6166 18.5727 37.1511 13.8482 36.3955 13.1102C35.9114 12.6374 35.8097 12.0771 35.8789 11.5942C35.9457 11.1287 36.1696 10.726 36.3606 10.4875L36.3755 10.4689L39.5858 7.27002L40.2022 7.86006L37.0271 11.0238C36.9114 11.1745 36.7736 11.4327 36.7336 11.7111C36.6946 11.9829 36.7475 12.262 37.0057 12.5142C37.7345 13.2259 43.1696 17.9252 45.852 20.207L45.2849 20.8426Z" fill="#232323"/>
</svg>
